<?xml version="1.0" encoding="UTF-8" standalone="no"?>
<svg
   id="Layer_1"
   data-name="Layer 1"
   viewBox="0 0 1584.0001 499.99999"
   version="1.1"
   sodipodi:docname="aulakh_logo_4.svg"
   width="1584"
   height="500"
   inkscape:version="1.4.3 (0d15f75, 2025-12-25)"
   xmlns:inkscape="http://www.inkscape.org/namespaces/inkscape"
   xmlns:sodipodi="http://sodipodi.sourceforge.net/DTD/sodipodi-0.dtd"
   xmlns="http://www.w3.org/2000/svg"
   xmlns:svg="http://www.w3.org/2000/svg"
   xmlns:rdf="http://www.w3.org/1999/02/22-rdf-syntax-ns#"
   xmlns:cc="http://creativecommons.org/ns#"
   xmlns:dc="http://purl.org/dc/elements/1.1/">
  <sodipodi:namedview
     id="namedview16"
     pagecolor="#ffffff"
     bordercolor="#000000"
     borderopacity="0.25"
     inkscape:showpageshadow="2"
     inkscape:pageopacity="0.0"
     inkscape:pagecheckerboard="0"
     inkscape:deskcolor="#d1d1d1"
     inkscape:zoom="0.5"
     inkscape:cx="791"
     inkscape:cy="251"
     inkscape:window-width="1920"
     inkscape:window-height="1009"
     inkscape:window-x="-8"
     inkscape:window-y="-8"
     inkscape:window-maximized="1"
     inkscape:current-layer="Layer_1" />
  <defs
     id="defs1">
    <style
       id="style1">.cls-1{fill:#cca8a2;}.cls-2{fill:#087993;}.cls-3{fill:#b8d544;}.cls-4{fill:#ced954;}.cls-5{fill:#ced955;}.cls-6{fill:#ceda55;}.cls-7{fill:#fdfefd;}.cls-8{fill:#fbfdf6;}.cls-9{font-size:10.81px;fill:#0b7993;font-family:Ebrima-Bold, Ebrima;font-weight:700;}</style>
  </defs>
  <title
     id="title1">LOGO new</title>
  <path
     class="cls-4"
     d="m 1554.1077,196.93616 h -24.5158 c -40.2147,0 -80.4294,0 -120.5725,0 -7.1684,0 -8.6737,2.07991 -8.602,8.39135 0,55.51202 0,110.95232 0,166.46433 0,6.8135 -2.0788,8.60652 -8.9605,8.10447 -6.8816,-0.50204 -14.3368,0 -22.222,0 v -7.17209 q 0,-182.02778 0,-363.9838441 c 0,-6.1680017 1.5771,-8.60651415 8.3153,-7.96102556 a 89.963351,90.009798 0 0 0 15.8422,0 c 5.3762,0 7.1684,1.29097716 7.1684,6.52660646 0,15.3482842 0,30.6248472 0,45.9731312 V 159.21094 h 153.2603 V 0.77935034 H 1584 V 379.10738 h -29.8923 z"
     id="path4"
     style="stroke-width:7.17025" />
  <path
     class="cls-5"
     d="m 1074.2555,379.60943 c -10.3225,0 -19.9999,0 -29.5339,0 -1.7204,0 -4.086,-2.51023 -4.8028,-4.30326 q -18.7812,-48.55508 -37.3473,-97.25361 c -2.2938,-6.09628 -4.80282,-12.12084 -7.16838,-18.28885 -1.14695,-3.51432 -3.15411,-4.51842 -7.1684,-4.51842 q -59.99947,0 -119.92725,0 a 6.2365032,6.239723 0 0 0 -7.16839,4.59015 c -14.33678,37.58178 -28.67357,75.09183 -42.50858,112.67361 a 9.3905967,9.395445 0 0 1 -11.1827,7.1721 c -8.17196,-0.64549 -16.34393,0 -25.8779,0 3.5842,-9.68233 6.59493,-18.1454 9.74902,-26.60847 Q 856.69468,180.15345 922.14212,7.2342359 c 0.86021,-2.2950702 2.00715,-5.5225132 3.94261,-6.31144365 4.44441,-1.86474481 7.1684,0.71720955 8.31534,4.87702485 9.3906,25.6761009 19.06794,51.2804819 28.67359,76.8848609 Q 1016.765,226.55691 1070.5996,370.50087 c 1.6487,2.72539 2.5089,5.52251 3.6559,9.10856 z M 929.16714,81.752306 C 911.67626,128.01232 894.75886,172.47931 877.62639,217.59179 h 102.57972 z"
     id="path5"
     style="stroke-width:7.17025" />
  <path
     class="cls-5"
     d="m 291.96875,379.60943 c -10.89596,0 -20.50161,0 -30.10726,0 -1.64872,0 -3.94261,-2.65368 -4.65945,-4.51842 q -21.9353,-56.803 -43.36879,-113.74943 a 8.1002857,8.1044678 0 0 0 -9.31891,-6.09629 c -38.56597,0 -77.20361,0 -115.769574,0 a 9.032177,9.0368402 0 0 0 -10.250803,6.81349 C 64.587255,299.28196 50.250446,336.28997 36.343761,373.51315 a 8.3153376,8.3196307 0 0 1 -9.749017,6.5266 c -8.458704,-0.50204 -16.91741,0 -26.594744,0 0.86020734,-2.86883 1.4336789,-5.02046 2.2222023,-7.17209 Q 71.325551,189.97923 140.64395,7.0907943 c 1.07525,-3.0122801 1.57704,-7.17209541 6.2365,-6.0245601 a 9.8207004,9.8257707 0 0 1 5.73471,5.7376763 Q 217.84755,181.08583 282.86489,355.51119 c 2.86736,7.24381 5.66303,14.91796 9.10386,24.09824 z M 197.70436,217.73523 C 180.78695,172.62275 164.0846,128.08404 146.6654,81.465422 L 95.052953,217.73523 Z"
     id="path6"
     style="stroke-width:7.17025" />
  <path
     class="cls-4"
     d="m 1324.9343,379.60943 c -13.5484,0 -25.4479,0 -37.3475,0 a 8.8171252,8.8216774 0 0 1 -5.2329,-3.37089 q -55.0532,-72.94021 -110.2498,-145.88042 a 213.97658,214.08705 0 0 0 -19.9999,-23.88307 v 7.17209 c 0,52.64318 0,105.35808 0,157.7861 0,6.02456 -1.4337,8.60651 -8.3153,8.10447 -6.8817,-0.50205 -14.3368,0 -22.5805,0 V 0.42074557 c 8.9605,0 18.0644,0 27.1682,0 1.2903,0 3.3692,3.94465243 3.4408,6.09628113 0,21.1576813 0,42.3153623 0,63.4730443 v 62.827559 a 13.906685,13.913865 0 0 0 1.362,7.17209 c 6.6667,-7.74586 13.405,-15.42 19.9999,-23.16587 31.8277,-37.438336 63.5837,-74.876672 95.6263,-112.0998472 a 13.906685,13.913865 0 0 1 9.0323,-4.23153628 c 11.326,-0.50204668 22.7237,0 35.842,0 L 1291.5295,26.598893 q -59.9278,69.856208 -119.7839,139.497257 a 6.2365032,6.239723 0 0 0 -0.5735,9.46716 q 52.4726,69.28245 104.7303,138.85177 22.1503,29.26215 44.1573,58.66774 c 2.0071,1.29098 2.9391,3.44261 4.8746,6.52661 z"
     id="path7"
     style="stroke-width:7.17025" />
  <path
     class="cls-4"
     d="m 339.42352,0.77935034 h 30.53736 V 8.596934 c 0,82.04877 0,164.097546 0,246.146316 a 226.59295,226.70994 0 0 0 4.0143,41.74159 68.959955,68.995558 0 0 0 58.63747,55.4403 56.34358,56.37267 0 0 0 51.3257,-18.43228 84.156951,84.2004 0 0 0 23.72739,-54.65137 c 1.362,-19.1495 1.79209,-38.37071 1.86379,-57.37677 q 0,-106.57733 0,-213.1546698 c 0,-6.3114436 1.79209,-8.39135131 8.4587,-7.81758368 a 166.0917,166.17745 0 0 0 17.92099,0 c 3.5125,0 5.16124,1.21925618 4.80282,4.59014108 a 24.229174,24.241683 0 0 0 0,3.2274426 c 0,73.0119298 0,146.0238598 0,218.9640698 a 346.37682,346.55565 0 0 1 -8.10029,84.2004 112.32875,112.38674 0 0 1 -38.13585,60.17388 c -29.89221,24.81545 -75.91331,21.08596 -104.01341,3.01228 a 100.35753,100.40934 0 0 1 -46.30783,-71.36235 365.94654,366.13547 0 0 1 -4.22935,-56.01406 c -0.50179,-79.89714 0,-159.794288 0,-239.6914294 z"
     id="path8"
     style="stroke-width:7.17025" />
  <path
     class="cls-6"
     d="m 645.01218,342.38625 h 115.84106 v 36.93629 c -2.36557,0 -4.58777,0 -6.80997,0 -43.87058,0 -87.74096,0 -131.61153,0 -7.1684,0 -8.31534,-2.0799 -8.24366,-8.10446 q 0,-181.95606 0,-363.9121232 c 0,-6.2397226 2.07884,-7.81758364 8.24366,-7.17209505 6.16481,0.64548859 14.33678,0 22.65212,0 z"
     id="path9"
     style="stroke-width:7.17025" />
  <path
     d="m 18.899413,464.14964 v 18.16418 H 6.316735 v -52.7276 H 26.0283 q 21.113968,0 21.113968,16.8037 0,7.94224 -6.077083,12.86936 -6.038128,4.89036 -16.1666,4.89036 z m 0,-25.44456 v 16.43602 h 4.94737 q 10.050561,0 10.050561,-8.30994 0,-8.12608 -10.050561,-8.12608 z m 36.296046,42.61596 v -9.41301 q 3.038541,1.72817 6.038128,2.57387 3.038541,0.8457 5.726481,0.8457 3.272276,0 5.142146,-0.8457 1.908828,-0.8457 1.908828,-2.57387 0,-1.10309 -0.857025,-1.83848 -0.857024,-0.7354 -2.220471,-1.28694 -1.324492,-0.55154 -2.921676,-0.99278 -1.59718,-0.44123 -3.077497,-0.99278 -2.376294,-0.8457 -4.207211,-1.80171 -1.79196,-0.99278 -3.038541,-2.27971 -1.207625,-1.28694 -1.869872,-2.97834 -0.623292,-1.6914 -0.623292,-4.00788 0,-3.16219 1.44136,-5.44191 1.480315,-2.27971 3.895566,-3.71372 2.454207,-1.47079 5.570659,-2.13265 3.155409,-0.69863 6.544557,-0.69863 2.64898,0 5.375873,0.40443 2.726901,0.36765 5.375887,1.10309 v 8.97179 q -2.33734,-1.28695 -5.025281,-1.91203 -2.648987,-0.66184 -5.220061,-0.66184 -1.207623,0 -2.298384,0.22062 -1.051803,0.18382 -1.869872,0.58832 -0.818069,0.36764 -1.285536,0.99279 -0.467465,0.58832 -0.467465,1.36047 0,1.02955 0.701205,1.76494 0.701204,0.73539 1.830916,1.28693 1.129714,0.51481 2.493159,0.95601 1.402403,0.40444 2.765853,0.84571 2.454208,0.80892 4.440942,1.76493 1.986743,0.95602 3.389145,2.24295 1.441357,1.28694 2.181515,3.0151 0.779111,1.72818 0.779111,4.1182 0,3.34603 -1.558223,5.73606 -1.519269,2.35325 -4.090343,3.86081 -2.53212,1.47078 -5.882305,2.13263 -3.311229,0.69864 -6.89515,0.69864 -6.583506,0 -12.193122,-1.91202 z m 79.381001,-36.65929 -16.20555,40.66718 Q 112.52756,500 100.76296,500 q -4.47991,0 -7.362622,-0.95601 v -9.26594 q 2.454199,1.36047 5.336919,1.36047 4.752593,0 6.622463,-4.2285 l 2.1036,-4.66973 -16.205551,-37.57854 h 13.634481 l 7.44053,22.90746 q 0.70121,2.13264 1.09076,5.03744 h 0.15577 q 0.35054,-2.13264 1.28553,-4.9639 l 7.51844,-22.981 z m 38.86711,36.2916 q -4.16824,2.27971 -12.03729,2.27971 -9.19354,0 -14.88106,-5.25805 -5.68753,-5.25805 -5.68753,-13.56798 0,-9.59686 6.07709,-15.1123 6.11603,-5.55222 16.32241,-5.55222 7.05098,0 10.20638,1.76495 v 9.85424 q -3.85661,-2.72094 -8.60919,-2.72094 -5.29797,0 -8.41442,2.94156 -3.0775,2.9048 -3.0775,8.05255 0,5.00066 2.96063,7.86869 2.96062,2.83126 8.14173,2.83126 4.59678,0 8.99875,-2.72095 z m 50.0474,1.36047 h -12.27102 v -21.3999 q 0,-8.27316 -6.38874,-8.27316 -3.27227,0 -5.29797,2.31648 -2.02569,2.31649 -2.02569,5.88313 v 21.47345 h -12.30999 v -55.7427 h 12.30999 v 23.67961 h 0.15577 q 4.51886,-6.50822 12.27103,-6.50822 13.55657,0 13.55657,15.44324 z m 32.43944,0.91924 q -9.97266,0 -15.69913,-5.25805 -5.68753,-5.29483 -5.68753,-14.34014 0,-9.33948 5.92126,-14.59754 5.92126,-5.29482 16.01078,-5.29482 9.93369,0 15.58226,5.29482 5.64857,5.25806 5.64857,13.93569 0,9.37624 -5.84335,14.81814 -5.80439,5.4419 -15.93286,5.4419 z m 0.31168,-30.5923 q -4.36304,0 -6.7783,2.83126 -2.41524,2.83125 -2.41524,8.01577 0,10.84703 9.27145,10.84703 8.84293,0 8.84293,-11.14119 0,-10.55287 -8.92084,-10.55287 z m 45.45062,29.67306 h -12.30998 v -55.7427 h 12.30998 z m 33.06273,0.91924 q -9.97265,0 -15.69912,-5.25805 -5.68753,-5.29483 -5.68753,-14.34014 0,-9.33948 5.92125,-14.59754 5.92127,-5.29482 16.01078,-5.29482 9.9337,0 15.58227,5.29482 5.64857,5.25806 5.64857,13.93569 0,9.37624 -5.84336,14.81814 -5.80439,5.4419 -15.93286,5.4419 z m 0.31168,-30.5923 q -4.36303,0 -6.77829,2.83126 -2.41524,2.83125 -2.41524,8.01577 0,10.84703 9.27144,10.84703 8.84293,0 8.84293,-11.14119 0,-10.55287 -8.92084,-10.55287 z m 72.25211,25.37102 q 0,10.47933 -6.42769,16.21539 Q 394.46386,500 382.27074,500 q -8.06383,0 -12.77746,-2.1694 v -9.78072 q 6.15499,3.3828 12.42686,3.3828 6.2329,0 9.661,-3.12541 3.4281,-3.08864 3.4281,-8.42024 v -2.97834 h -0.15577 q -4.20721,6.32437 -12.42686,6.32437 -7.63531,0 -12.1152,-5.0742 -4.4799,-5.07421 -4.4799,-13.60475 0,-9.5601 4.98632,-15.18585 4.98633,-5.62575 13.12806,-5.62575 7.2847,0 10.90758,5.29482 h 0.15577 v -4.37558 h 12.30999 z m -12.15422,-13.78859 v -2.97835 q 0,-3.56664 -2.25942,-6.06698 -2.22048,-2.5371 -5.8044,-2.5371 -4.09034,0 -6.42768,3.01511 -2.33733,3.0151 -2.33733,8.49377 0,4.70651 2.22046,7.46423 2.22048,2.72095 6.07709,2.72095 3.81764,0 6.15499,-2.75772 2.37629,-2.79449 2.37629,-7.35391 z m 32.36152,-25.51811 q -3.11645,0 -5.10319,-1.72818 -1.98675,-1.76493 -1.98675,-4.30203 0,-2.61065 1.98675,-4.26528 1.98674,-1.65463 5.10319,-1.65463 3.15541,0 5.1032,1.65463 1.98673,1.65463 1.98673,4.26528 0,2.64741 -1.98673,4.33881 -1.94779,1.6914 -5.1032,1.6914 z m 6.07709,43.60874 h -12.31 v -37.65207 h 12.31 z m 44.28195,-1.36047 q -4.16825,2.27971 -12.0373,2.27971 -9.19353,0 -14.88106,-5.25805 -5.68753,-5.25805 -5.68753,-13.56798 0,-9.59686 6.07709,-15.1123 6.11604,-5.55222 16.32242,-5.55222 7.05098,0 10.20638,1.76495 v 9.85424 q -3.85661,-2.72094 -8.60919,-2.72094 -5.29798,0 -8.41443,2.94156 -3.0775,2.9048 -3.0775,8.05255 0,5.00066 2.96063,7.86869 2.96063,2.83126 8.14173,2.83126 4.59677,0 8.99876,-2.72095 z m 44.94422,1.36047 h -11.64776 v -5.40513 h -0.15579 q -4.01244,6.32437 -11.88148,6.32437 -5.8044,0 -9.15459,-3.08864 -3.31123,-3.12542 -3.31123,-8.30993 0,-10.95734 13.75135,-12.64874 l 10.82968,-1.36048 q 0,-6.17729 -7.08994,-6.17729 -7.12888,0 -13.55656,4.00789 v -8.75116 q 2.57107,-1.25017 7.01202,-2.20618 4.4799,-0.95602 8.14174,-0.95602 17.06257,0 17.06257,16.06832 z m -11.56983,-15.29615 v -2.5371 l -7.24575,0.88247 q -5.99917,0.73539 -5.99917,5.11097 0,1.98557 1.44136,3.2725 1.48031,1.25017 3.97347,1.25017 3.46706,0 5.64857,-2.24295 2.18152,-2.27972 2.18152,-5.73606 z m 37.30891,15.29615 h -12.30999 v -55.7427 h 12.30999 z m 114.32769,0.84571 q -2.06464,0 -3.93451,-0.51482 -1.83092,-0.51481 -3.50601,-1.39724 -1.63614,-0.88247 -3.11646,-2.0591 -1.48031,-1.21339 -2.80481,-2.57387 -1.44135,1.10308 -3.46705,2.27972 -2.02569,1.17662 -4.59676,2.13263 -2.53213,0.91924 -5.60962,1.50756 -3.07749,0.62504 -6.5835,0.62504 -4.55782,0 -8.45338,-1.02954 -3.85661,-1.02955 -6.66142,-3.05188 -2.80482,-2.0591 -4.40199,-5.07421 -1.55824,-3.0151 -1.55824,-6.98622 0,-3.12541 1.16868,-5.55221 1.20763,-2.46356 3.11646,-4.30204 1.90881,-1.83848 4.32407,-3.16219 2.41526,-1.32371 4.90841,-2.20618 -1.20761,-0.88246 -2.4542,-2.02232 -1.20764,-1.17662 -2.18152,-2.5371 -0.97389,-1.39725 -1.59719,-3.01511 -0.58429,-1.61787 -0.58429,-3.41957 0,-2.90481 1.24658,-5.14774 1.24658,-2.24295 3.46705,-3.78727 2.25943,-1.54433 5.37588,-2.35326 3.11645,-0.80893 6.8562,-0.80893 3.58391,0 6.54456,0.84569 2.99957,0.84571 5.14214,2.35326 2.14256,1.50756 3.31122,3.64019 1.16868,2.09587 1.16868,4.63297 0,4.08143 -2.61004,7.09654 -2.57107,2.97834 -7.28469,4.85358 1.86986,0.80893 3.58392,1.83848 1.71403,1.02955 3.35018,2.35326 1.63613,1.3237 3.19437,3.01511 1.55821,1.65463 3.07749,3.82403 3.19436,-3.78727 4.55781,-8.05254 1.4024,-4.30204 1.4024,-8.93501 0,-1.39725 -0.19476,-2.68418 -0.15577,-1.28693 -0.54538,-2.39002 h 10.47907 q 0.42853,1.17662 0.6233,2.27971 0.19476,1.10309 0.19476,2.61064 0,3.56665 -0.81807,6.94945 -0.77912,3.38281 -2.22047,6.47145 -1.44136,3.08865 -3.50601,5.84637 -2.02569,2.75772 -4.4799,5.14774 1.90883,1.87526 3.93452,2.9048 2.02569,0.99279 3.81766,0.99279 1.86987,0 3.81766,-0.36772 1.94778,-0.40443 3.38914,-1.10308 v 8.75116 q -2.14256,0.80893 -4.24617,1.17663 -2.06464,0.40443 -4.63573,0.40443 z m -32.99544,-8.78794 q 2.29839,0 4.32408,-0.40444 2.02569,-0.44123 3.81766,-1.13986 1.79196,-0.69863 3.31123,-1.61786 1.55823,-0.91924 2.84377,-1.91202 -1.98675,-2.94157 -3.93453,-4.9639 -1.94778,-2.0591 -3.85661,-3.49312 -1.90883,-1.47078 -3.81766,-2.46355 -1.86986,-0.99279 -3.7787,-1.80171 -1.59717,0.73538 -3.07749,1.65462 -1.44136,0.88248 -2.57108,2.09587 -1.12971,1.17663 -1.83092,2.72095 -0.66221,1.50756 -0.66221,3.49312 0,1.76493 0.66221,3.19895 0.66222,1.43401 1.86988,2.46357 1.24658,1.02954 2.92167,1.61786 1.71406,0.5516 3.7787,0.5516 z m 7.2068,-33.3868 q 0,-1.06632 -0.42853,-1.91202 -0.42853,-0.8457 -1.16867,-1.39724 -0.74015,-0.58833 -1.67509,-0.88247 -0.93494,-0.33092 -1.98674,-0.33092 -1.28554,0 -2.3763,0.36771 -1.0518,0.36765 -1.86987,0.99278 -0.77911,0.62505 -1.20762,1.50755 -0.42853,0.8457 -0.42853,1.83848 0,2.05911 1.36345,3.78727 1.36344,1.72818 3.38914,2.79449 1.28553,-0.44122 2.41525,-1.02955 1.16867,-0.58833 2.02569,-1.39724 0.89598,-0.80893 1.40241,-1.87525 0.54545,-1.06632 0.54545,-2.46357 z m 133.92244,39.45379 q -6.11608,2.79448 -15.9719,2.79448 -12.8553,0 -20.21796,-7.1333 -7.36258,-7.1333 -7.36258,-19.00988 0,-12.64875 8.25856,-20.51743 8.29756,-7.8687 21.50354,-7.8687 8.18071,0 13.79034,1.94879 v 11.43534 q -5.60963,-3.16218 -12.77745,-3.16218 -7.86903,0 -12.6996,4.66974 -4.8305,4.66974 -4.8305,12.64874 0,7.64808 4.55789,12.20751 4.55774,4.52266 12.271,4.52266 7.36258,0 13.47866,-3.3828 z m 31.23176,2.79448 q -9.9726,0 -15.69907,-5.25805 -5.68755,-5.29483 -5.68755,-14.34014 0,-9.33948 5.92124,-14.59754 5.92124,-5.29482 16.01082,-5.29482 9.93368,0 15.58231,5.29482 5.64847,5.25806 5.64847,13.93569 0,9.37624 -5.84338,14.81814 -5.8044,5.4419 -15.93284,5.4419 z m 0.31183,-30.5923 q -4.36305,0 -6.77829,2.83126 -2.41532,2.83125 -2.41532,8.01577 0,10.84703 9.27145,10.84703 8.84294,0 8.84294,-11.14119 0,-10.55287 -8.92078,-10.55287 z m 71.04452,29.67306 h -12.27136 v -5.73605 h -0.19498 q -4.55781,6.65529 -12.19308,6.65529 -13.86827,0 -13.86827,-15.8477 v -22.72361 h 12.27108 v 21.69407 q 0,7.979 6.70037,7.979 3.31123,0 5.29794,-2.16941 1.9868,-2.20617 1.9868,-5.95667 v -21.54699 h 12.271 z m 52.57946,0 h -12.27108 v -20.9219 q 0,-8.75116 -6.62237,-8.75116 -3.19445,0 -5.2591,2.31648 -2.06464,2.31649 -2.06464,5.88313 v 21.47345 h -12.30999 v -37.65207 h 12.30999 v 5.95668 h 0.15556 q 4.40204,-6.87592 12.81637,-6.87592 13.24497,0 13.24497,15.51677 z m 10.81925,-0.99278 v -9.41301 q 3.03861,1.72817 6.03816,2.57387 3.03853,0.8457 5.72647,0.8457 3.2723,0 5.14218,-0.8457 1.9088,-0.8457 1.9088,-2.57387 0,-1.10309 -0.85705,-1.83848 -0.85699,-0.7354 -2.22042,-1.28694 -1.3245,-0.55154 -2.92177,-0.99278 -1.59718,-0.44122 -3.07739,-0.99278 -2.37632,-0.8457 -4.20727,-1.80171 -1.79195,-0.99278 -3.03854,-2.27971 -1.20765,-1.28694 -1.86987,-2.97834 -0.62365,-1.6914 -0.62365,-4.00788 0,-3.16219 1.44135,-5.44191 1.48034,-2.27971 3.89558,-3.71372 2.45418,-1.47079 5.57071,-2.13265 3.15531,-0.69863 6.54446,-0.69863 2.649,0 5.37586,0.40443 2.72694,0.36765 5.37594,1.10309 v 8.97179 q -2.33733,-1.28695 -5.02526,-1.91203 -2.64901,-0.66184 -5.22009,-0.66184 -1.20767,0 -2.29841,0.22062 -1.05174,0.18382 -1.86987,0.58832 -0.81799,0.36764 -1.28552,0.99279 -0.46738,0.58832 -0.46738,1.36047 0,1.02955 0.70107,1.76494 0.70108,0.73539 1.83089,1.28693 1.12973,0.51481 2.49316,0.95601 1.40243,0.40444 2.76586,0.84571 2.45425,0.80892 4.44096,1.76493 1.98672,0.95602 3.38908,2.24295 1.44142,1.28694 2.18155,3.0151 0.77913,1.72818 0.77913,4.1182 0,3.34603 -1.55826,5.73606 -1.5192,2.35325 -4.09028,3.86081 -2.53217,1.47078 -5.88239,2.13263 -3.31116,0.69864 -6.89507,0.69864 -6.58359,0 -12.19315,-1.91202 z m 77.23862,-14.52399 h -26.02244 q 0.62365,8.19963 10.9465,8.19963 6.58344,0 11.56994,-2.94157 v 8.38347 q -5.5319,2.79448 -14.37473,2.79448 -9.66106,0 -14.99792,-5.03743 -5.33695,-5.07421 -5.33695,-14.11953 0,-9.37625 5.7654,-14.85492 5.76547,-5.47867 14.17987,-5.47867 8.72613,0 13.47863,4.89036 4.7917,4.89035 4.7917,13.27383 z m -11.4142,-7.1333 q 0,-8.08932 -6.93398,-8.08932 -2.96069,0 -5.14217,2.3165 -2.14256,2.31648 -2.61001,5.77282 z m 34.7378,22.65007 h -12.3099 v -55.7427 h 12.3099 z m 26.3624,0 h -12.31 v -55.7427 h 12.31 z m 20.2853,-43.60874 q -3.1165,0 -5.1031,-1.72818 -1.9868,-1.76493 -1.9868,-4.30203 0,-2.61065 1.9868,-4.26528 1.9866,-1.65463 5.1031,-1.65463 3.1554,0 5.1032,1.65463 1.9868,1.65463 1.9868,4.26528 0,2.64741 -1.9868,4.33881 -1.9478,1.6914 -5.1032,1.6914 z m 6.0771,43.60874 h -12.31 v -37.65207 h 12.31 z m 52.5793,0 h -12.2709 v -20.9219 q 0,-8.75116 -6.6225,-8.75116 -3.1943,0 -5.2589,2.31648 -2.0647,2.31649 -2.0647,5.88313 v 21.47345 h -12.31 v -37.65207 h 12.31 v 5.95668 h 0.1555 q 4.402,-6.87592 12.8165,-6.87592 13.2448,0 13.2448,15.51677 z m 52.5407,-4.30204 q 0,10.47933 -6.4277,16.21539 Q 1182.5689,500 1170.3757,500 q -8.0638,0 -12.7775,-2.1694 v -9.78072 q 6.1551,3.3828 12.4268,3.3828 6.233,0 9.6611,-3.12541 3.4281,-3.08864 3.4281,-8.42024 v -2.97834 h -0.1555 q -4.2073,6.32437 -12.4269,6.32437 -7.6354,0 -12.1153,-5.0742 -4.4799,-5.07421 -4.4799,-13.60475 0,-9.5601 4.9864,-15.18585 4.9864,-5.62575 13.1281,-5.62575 7.2846,0 10.9076,5.29482 h 0.1555 v -4.37558 h 12.31 z M 1183.27,464.22319 v -2.97835 q 0,-3.56664 -2.2593,-6.06698 -2.2206,-2.5371 -5.8044,-2.5371 -4.0904,0 -6.4277,3.01511 -2.3374,3.0151 -2.3374,8.49377 0,4.70651 2.2204,7.46423 2.2206,2.72095 6.0772,2.72095 3.8176,0 6.155,-2.75772 2.3762,-2.79449 2.3762,-7.35391 z m 72.6063,16.06831 v -11.76628 q 3.3892,2.68419 7.3627,4.04466 3.9735,1.32371 8.0248,1.32371 2.3763,0 4.1292,-0.40444 1.7921,-0.40443 2.9608,-1.10308 1.2076,-0.7354 1.7919,-1.6914 0.5843,-0.99279 0.5843,-2.13264 0,-1.54432 -0.9349,-2.75772 -0.9351,-1.2134 -2.5711,-2.24294 -1.5972,-1.02956 -3.8177,-1.98556 -2.2204,-0.95601 -4.7915,-1.94879 -6.5446,-2.57388 -9.7779,-6.2876 -3.1944,-3.71374 -3.1944,-8.97179 0,-4.11819 1.753,-7.05976 1.753,-2.97834 4.7527,-4.89036 3.0384,-1.91202 7.0119,-2.79449 3.9735,-0.91924 8.4145,-0.91924 4.3631,0 7.7132,0.51482 3.3891,0.47802 6.2329,1.50755 v 10.99411 q -1.4024,-0.91924 -3.0775,-1.61787 -1.6362,-0.69864 -3.3892,-1.13985 -1.753,-0.47802 -3.5059,-0.69863 -1.7142,-0.22062 -3.2724,-0.22062 -2.1425,0 -3.8954,0.40444 -1.7531,0.36764 -2.9606,1.06632 -1.2077,0.69863 -1.87,1.6914 -0.6623,0.956 -0.6623,2.1694 0,1.32371 0.7402,2.39003 0.7401,1.02955 2.1036,1.98556 1.3635,0.91923 3.3113,1.83847 1.9478,0.88248 4.4019,1.83848 3.3502,1.32371 5.9992,2.83127 2.688,1.47078 4.5968,3.34603 1.9088,1.87524 2.9217,4.30204 1.0128,2.39002 1.0128,5.58898 0,4.41235 -1.7919,7.42746 -1.753,2.97833 -4.7916,4.85359 -3.0386,1.83848 -7.0899,2.6474 -4.0124,0.80894 -8.4923,0.80894 -4.5967,0 -8.7651,-0.73539 -4.1293,-0.73539 -7.1678,-2.20618 z m 85.6139,-13.49445 h -26.0224 q 0.6237,8.19963 10.9466,8.19963 6.5835,0 11.5698,-2.94157 v 8.38347 q -5.5317,2.79448 -14.3747,2.79448 -9.661,0 -14.9979,-5.03743 -5.3369,-5.07421 -5.3369,-14.11953 0,-9.37625 5.7655,-14.85492 5.7654,-5.47867 14.1798,-5.47867 8.726,0 13.4787,4.89036 4.7915,4.89035 4.7915,13.27383 z m -11.414,-7.1333 q 0,-8.08932 -6.9341,-8.08932 -2.9606,0 -5.1422,2.3165 -2.1425,2.31648 -2.6099,5.77282 z m 48.4502,-4.52265 q -2.2206,-1.13986 -5.1811,-1.13986 -4.0125,0 -6.2719,2.79448 -2.2594,2.75772 -2.2594,7.53777 v 17.98033 h -12.31 v -37.65207 h 12.31 v 6.98623 h 0.1556 q 2.9217,-7.64808 10.518,-7.64808 1.9477,0 3.0385,0.44123 z m 47.3984,-10.47935 -14.842,37.65207 h -14.0242 l -14.1408,-37.65207 h 13.1669 l 6.9341,23.20162 q 1.1687,3.93435 1.3635,6.69207 h 0.1556 q 0.2731,-2.61064 1.4414,-6.47145 l 7.0898,-23.42224 z m 15.1821,-5.95667 q -3.1165,0 -5.1032,-1.72818 -1.9869,-1.76493 -1.9869,-4.30203 0,-2.61065 1.9869,-4.26528 1.9867,-1.65463 5.1032,-1.65463 3.1553,0 5.1032,1.65463 1.9866,1.65463 1.9866,4.26528 0,2.64741 -1.9866,4.33881 -1.9479,1.6914 -5.1032,1.6914 z m 6.0771,43.60874 h -12.31 v -37.65207 h 12.31 z m 44.282,-1.36047 q -4.1683,2.27971 -12.0373,2.27971 -9.1936,0 -14.8811,-5.25805 -5.6875,-5.25805 -5.6875,-13.56798 0,-9.59686 6.0771,-15.1123 6.116,-5.55222 16.3223,-5.55222 7.0511,0 10.2065,1.76495 v 9.85424 q -3.8566,-2.72094 -8.6092,-2.72094 -5.298,0 -8.4144,2.94156 -3.0775,2.9048 -3.0775,8.05255 0,5.00066 2.9606,7.86869 2.9607,2.83126 8.1417,2.83126 4.5967,0 8.9988,-2.72095 z m 47.5932,-14.1563 h -26.0225 q 0.623,8.19963 10.9466,8.19963 6.5835,0 11.5698,-2.94157 v 8.38347 q -5.5316,2.79448 -14.3747,2.79448 -9.661,0 -14.9978,-5.03743 -5.337,-5.07421 -5.337,-14.11953 0,-9.37625 5.7654,-14.85492 5.7656,-5.47867 14.1798,-5.47867 8.7262,0 13.4787,4.89036 4.7917,4.89035 4.7917,13.27383 z m -11.414,-7.1333 q 0,-8.08932 -6.9342,-8.08932 -2.9607,0 -5.1422,2.3165 -2.1426,2.31648 -2.61,5.77282 z m 19.8177,21.65729 v -9.41301 q 3.0385,1.72817 6.0381,2.57387 3.0386,0.8457 5.7265,0.8457 3.2722,0 5.1421,-0.8457 1.9088,-0.8457 1.9088,-2.57387 0,-1.10309 -0.857,-1.83848 -0.857,-0.7354 -2.2205,-1.28694 -1.3244,-0.55154 -2.9217,-0.99278 -1.5971,-0.44122 -3.0774,-0.99278 -2.3763,-0.8457 -4.2072,-1.80171 -1.792,-0.99278 -3.0385,-2.27971 -1.2077,-1.28694 -1.87,-2.97834 -0.6235,-1.6914 -0.6235,-4.00788 0,-3.16219 1.4412,-5.44191 1.4804,-2.27971 3.8957,-3.71372 2.4541,-1.47079 5.5706,-2.13265 3.1554,-0.69863 6.5446,-0.69863 2.649,0 5.3758,0.40443 2.7269,0.36765 5.3759,1.10309 v 8.97179 q -2.3374,-1.28695 -5.0253,-1.91203 -2.649,-0.66184 -5.2201,-0.66184 -1.2076,0 -2.2983,0.22062 -1.0519,0.18382 -1.8699,0.58832 -0.818,0.36764 -1.2855,0.99279 -0.4674,0.58832 -0.4674,1.36047 0,1.02955 0.7011,1.76494 0.701,0.73539 1.8308,1.28693 1.1298,0.51481 2.4933,0.95601 1.4023,0.40444 2.7658,0.84571 2.4543,0.80892 4.4408,1.76493 1.9868,0.95602 3.3892,2.24295 1.4413,1.28694 2.1816,3.0151 0.7792,1.72818 0.7792,4.1182 0,3.34603 -1.5583,5.73606 -1.5194,2.35325 -4.0904,3.86081 -2.5321,1.47078 -5.8823,2.13263 -3.3112,0.69864 -6.8951,0.69864 -6.5836,0 -12.1931,-1.91202 z"
     id="text16"
     style="font-weight:700;font-size:10.81px;font-family:Ebrima-Bold, Ebrima;letter-spacing:0.5px;word-spacing:3px;fill:#0b7993;stroke-width:13.8385"
     class="cls-9"
     aria-label="Psychological &amp; Counselling Services" />
  <metadata
     id="metadata16">
    <rdf:RDF>
      <cc:Work
         rdf:about="">
        <dc:title>LOGO new</dc:title>
      </cc:Work>
    </rdf:RDF>
  </metadata>
</svg>
