<?xml version="1.0" encoding="UTF-8" standalone="no"?>
<svg
   id="Layer_1"
   data-name="Layer 1"
   viewBox="0 0 200.00001 500"
   version="1.1"
   sodipodi:docname="aulakh_logo_2.svg"
   width="200"
   height="500"
   inkscape:version="1.4.3 (0d15f75, 2025-12-25)"
   xmlns:inkscape="http://www.inkscape.org/namespaces/inkscape"
   xmlns:sodipodi="http://sodipodi.sourceforge.net/DTD/sodipodi-0.dtd"
   xmlns="http://www.w3.org/2000/svg"
   xmlns:svg="http://www.w3.org/2000/svg"
   xmlns:rdf="http://www.w3.org/1999/02/22-rdf-syntax-ns#"
   xmlns:cc="http://creativecommons.org/ns#"
   xmlns:dc="http://purl.org/dc/elements/1.1/">
  <sodipodi:namedview
     id="namedview16"
     pagecolor="#ffffff"
     bordercolor="#000000"
     borderopacity="0.25"
     inkscape:showpageshadow="2"
     inkscape:pageopacity="0.0"
     inkscape:pagecheckerboard="0"
     inkscape:deskcolor="#d1d1d1"
     inkscape:zoom="1"
     inkscape:cx="99.5"
     inkscape:cy="249.5"
     inkscape:window-width="1920"
     inkscape:window-height="1009"
     inkscape:window-x="-8"
     inkscape:window-y="-8"
     inkscape:window-maximized="1"
     inkscape:current-layer="Layer_1" />
  <defs
     id="defs1">
    <style
       id="style1">.cls-1{fill:#cca8a2;}.cls-2{fill:#087993;}.cls-3{fill:#b8d544;}.cls-4{fill:#ced954;}.cls-5{fill:#ced955;}.cls-6{fill:#ceda55;}.cls-7{fill:#fdfefd;}.cls-8{fill:#fbfdf6;}.cls-9{font-size:10.81px;fill:#0b7993;font-family:Ebrima-Bold, Ebrima;font-weight:700;}</style>
  </defs>
  <title
     id="title1">LOGO new</title>
  <path
     class="cls-2"
     d="m 200,500 h -82.8914 c 0.50853,-8.43355 0.94441,-16.50045 1.5256,-24.56732 a 1118.126,1128.7035 0 0 0 0,-140.87708 18.670545,18.847169 0 0 1 3.6324,-10.63362 c 13.73048,-21.26725 27.75155,-42.24113 41.62733,-63.3617 a 117.90776,119.02317 0 0 0 9.73483,-17.38046 551.03533,556.24815 0 0 1 -55.79369,67.61513 L 98.292756,176.00469 97.638926,173.7313 c -0.944431,-3.30009 -2.034152,-9.31358 -2.760629,-9.31358 a 985.54326,994.86655 0 0 1 0.79913,217.14578 C 68.870323,340.27575 44.170002,281.1675 28.187432,236.43297 c 0.726481,3.7401 5.957141,24.05398 6.828917,27.79408 0.871776,3.7401 1.8162,7.7002 2.833272,11.58698 a 656.88355,663.0977 0 0 0 50.853592,136.03694 13.439886,13.567028 0 0 1 1.816204,7.33353 c -4.722124,26.91408 -9.734838,53.75477 -14.529609,80.66883 H 0 V 0 h 200 z m -42.3538,-210.03228 -7.26481,-0.58667 a 25.790052,26.034027 0 0 0 36.32402,8.7269 25.063572,25.300675 0 0 0 -33.63604,-11.51365 l 5.08537,2.34675 z M 75.771864,127.31006 94.079166,149.31065 C 99.963659,112.12966 75.989808,82.428865 38.358157,76.41537 c -9.807483,37.69434 17.290236,80.22881 51.507425,79.64212 L 74.173604,128.63009 Z M 48.964771,286.52098 c 22.666167,-4.98681 34.65308,-20.97391 29.567718,-38.13436 -15.401353,0.73335 -33.781305,13.7137 -29.930957,34.61425 l 6.393027,-7.77352 0.726482,0.66 z"
     id="path2"
     style="stroke-width:7.29906" />
  <path
     class="cls-2"
     d="m 74.173604,128.70343 -1.235017,-1.83338 2.833277,0.44001 z"
     id="path12"
     style="stroke-width:7.29906" />
  <path
     class="cls-2"
     d="m 158.15474,288.94105 3.26915,0.88 v 0.88002 l -3.92299,-0.73334 z"
     id="path13"
     style="stroke-width:7.29906" />
  <metadata
     id="metadata16">
    <rdf:RDF>
      <cc:Work
         rdf:about="">
        <dc:title>LOGO new</dc:title>
      </cc:Work>
    </rdf:RDF>
  </metadata>
</svg>
