<?xml version="1.0" encoding="UTF-8" standalone="no"?>
<svg
   id="Layer_1"
   data-name="Layer 1"
   viewBox="0 0 200.00001 499.99999"
   version="1.1"
   sodipodi:docname="aulakh_logo_3.svg"
   width="200"
   height="500"
   inkscape:version="1.4.3 (0d15f75, 2025-12-25)"
   xmlns:inkscape="http://www.inkscape.org/namespaces/inkscape"
   xmlns:sodipodi="http://sodipodi.sourceforge.net/DTD/sodipodi-0.dtd"
   xmlns="http://www.w3.org/2000/svg"
   xmlns:svg="http://www.w3.org/2000/svg"
   xmlns:rdf="http://www.w3.org/1999/02/22-rdf-syntax-ns#"
   xmlns:cc="http://creativecommons.org/ns#"
   xmlns:dc="http://purl.org/dc/elements/1.1/">
  <sodipodi:namedview
     id="namedview16"
     pagecolor="#ffffff"
     bordercolor="#000000"
     borderopacity="0.25"
     inkscape:showpageshadow="2"
     inkscape:pageopacity="0.0"
     inkscape:pagecheckerboard="0"
     inkscape:deskcolor="#d1d1d1"
     inkscape:zoom="1"
     inkscape:cx="99.5"
     inkscape:cy="249.5"
     inkscape:window-width="1920"
     inkscape:window-height="1009"
     inkscape:window-x="-8"
     inkscape:window-y="-8"
     inkscape:window-maximized="1"
     inkscape:current-layer="Layer_1" />
  <defs
     id="defs1">
    <style
       id="style1">.cls-1{fill:#cca8a2;}.cls-2{fill:#087993;}.cls-3{fill:#b8d544;}.cls-4{fill:#ced954;}.cls-5{fill:#ced955;}.cls-6{fill:#ceda55;}.cls-7{fill:#fdfefd;}.cls-8{fill:#fbfdf6;}.cls-9{font-size:10.81px;fill:#0b7993;font-family:Ebrima-Bold, Ebrima;font-weight:700;}</style>
  </defs>
  <title
     id="title1">LOGO new</title>
  <path
     class="cls-3"
     d="M 74.845313,500 H 0 V 0 h 200 v 500 h -82.70839 c 0.58245,-10.11879 1.52894,-20.16425 1.52894,-30.20971 0,-40.76844 0,-81.53688 0,-122.232 0,-4.69277 -0.72807,-9.31221 -0.36403,-13.93166 a 20.749904,20.897492 0 0 1 2.98507,-8.94559 c 14.05169,-21.55741 28.3218,-42.96818 42.4463,-64.45227 1.0921,-1.68646 16.67273,-27.05675 17.76483,-29.32981 -15.79905,19.87095 -47.03312,61.81258 -62.75936,80.65699 l -2.40262,-1.02655 c -4.22279,-41.20839 -10.12013,-103.53424 -19.293775,-143.93606 1.237713,31.9695 4.368405,85.12979 4.222785,117.31926 -0.14561,32.18947 -2.693845,64.08564 -5.387692,96.20179 C 68.802314,340.29916 42.373487,276.94677 26.356021,232.36545 c 0.582454,2.63968 5.824529,24.12377 6.406982,26.83678 0.582454,2.71301 2.766653,8.13902 3.49472,11.14533 a 639.46109,644.00939 0 0 0 51.7656,139.97653 22.715685,22.877255 0 0 1 1.456133,15.98475 c -4.514014,22.65728 -8.809608,45.46121 -13.178009,68.19182 -0.21842,1.61314 -0.87368,3.44625 -1.456134,5.49934 z M 49.945383,285.37909 a 30.06916,30.283033 0 0 0 28.467458,-37.32219 34.073527,34.315882 0 0 0 -28.030618,18.11116 96.032014,96.715061 0 0 0 -4.295594,15.32483 l 7.280668,-3.66623 c -1.456133,3.37293 -2.475427,5.49934 -3.421913,7.33245 0,0 -0.364033,0 -0.43684,0.36663 -0.07281,0.36662 0,0 0,0 z M 34.65598,219.38701 v 11.43862 c 17.983251,1.90644 31.379682,-7.33245 33.272661,-22.58395 a 30.06916,30.283033 0 0 0 -29.122682,8.13902 26.792859,26.983429 0 0 1 -4.295593,3.07963 c 0.800875,-2.05309 1.456134,-4.10617 2.329815,-6.08593 A 32.6902,32.922716 0 0 0 25.91918,172.09268 c -15.507828,15.5448 -16.2358949,35.48908 -1.383326,49.42074 l 0.65526,-9.89881 h 1.456135 l 2.475417,12.46517 z m 86.05754,-92.31559 0.94649,1.09987 -21.842005,28.81654 A 64.215494,64.672239 0 0 0 161.63088,83.150022 C 122.82492,85.496407 95.303991,112.47984 97.196965,148.40886 Z m -20.31306,-15.32483 c 29.12267,-29.329813 26.64724,-68.998386 -5.242083,-94.295351 -27.448158,28.889867 -28.249032,70.8315 -2.1842,89.162631 l 3.057881,-37.24886 h 0.87368 z M 38.296319,76.550814 C 28.685836,114.67957 48.489255,147.08902 90.06191,157.2078 l -16.818337,-30.06306 1.674547,-1.17319 19.512191,24.27042 C 99.453972,106.3939 70.768102,81.83018 38.296312,76.404165 Z M 180.77904,224.81302 a 23.589365,23.757149 0 0 0 -8.08155,-36.14899 24.099012,24.270421 0 0 0 5.09647,37.83546 v -11.14533 h 0.65526 z m -29.92355,65.18551 c 8.37277,12.8318 21.842,15.76478 36.40334,8.21235 A 24.026205,24.197096 0 0 0 154.42302,286.9189 l 3.3491,2.41971 z"
     id="path3"
     style="stroke-width:7.30651" />
  <path
     class="cls-8"
     d="m 49.945383,285.37909 v 0.73324 c 0,0 0,0 0,0 0,0 0,0 0.43684,-0.36662 z"
     id="path11"
     style="stroke-width:7.30651" />
  <path
     class="cls-3"
     d="m 124.35386,125.31163 v -0.95322 h 0.87368 l -0.80088,0.80657 z"
     id="path14"
     style="stroke-width:7.30651" />
  <path
     class="cls-3"
     d="m 122.89772,126.55815 -1.23771,1.46649 -0.94649,-1.09987 1.52894,-0.95322 z"
     id="path15"
     style="stroke-width:7.30651" />
  <path
     class="cls-3"
     d="m 124.20824,125.16498 -1.31052,1.39317 -0.65526,-0.5866 2.1114,-0.65992 z"
     id="path16"
     style="stroke-width:7.30651" />
  <metadata
     id="metadata16">
    <rdf:RDF>
      <cc:Work
         rdf:about="">
        <dc:title>LOGO new</dc:title>
      </cc:Work>
    </rdf:RDF>
  </metadata>
</svg>
