<?xml version="1.0" encoding="UTF-8" standalone="no"?>
<svg
   id="Layer_1"
   data-name="Layer 1"
   viewBox="0 0 200 500"
   version="1.1"
   sodipodi:docname="aulakh_logo_1.svg"
   width="200"
   height="500"
   inkscape:version="1.4.3 (0d15f75, 2025-12-25)"
   xmlns:inkscape="http://www.inkscape.org/namespaces/inkscape"
   xmlns:sodipodi="http://sodipodi.sourceforge.net/DTD/sodipodi-0.dtd"
   xmlns="http://www.w3.org/2000/svg"
   xmlns:svg="http://www.w3.org/2000/svg"
   xmlns:rdf="http://www.w3.org/1999/02/22-rdf-syntax-ns#"
   xmlns:cc="http://creativecommons.org/ns#"
   xmlns:dc="http://purl.org/dc/elements/1.1/">
  <sodipodi:namedview
     id="namedview16"
     pagecolor="#ffffff"
     bordercolor="#000000"
     borderopacity="0.25"
     inkscape:showpageshadow="2"
     inkscape:pageopacity="0.0"
     inkscape:pagecheckerboard="0"
     inkscape:deskcolor="#d1d1d1"
     inkscape:zoom="1"
     inkscape:cx="100.5"
     inkscape:cy="249.5"
     inkscape:window-width="1920"
     inkscape:window-height="1009"
     inkscape:window-x="-8"
     inkscape:window-y="-8"
     inkscape:window-maximized="1"
     inkscape:current-layer="Layer_1" />
  <defs
     id="defs1">
    <style
       id="style1">.cls-1{fill:#cca8a2;}.cls-2{fill:#087993;}.cls-3{fill:#b8d544;}.cls-4{fill:#ced954;}.cls-5{fill:#ced955;}.cls-6{fill:#ceda55;}.cls-7{fill:#fdfefd;}.cls-8{fill:#fbfdf6;}.cls-9{font-size:10.81px;fill:#0b7993;font-family:Ebrima-Bold, Ebrima;font-weight:700;}</style>
  </defs>
  <title
     id="title1">LOGO new</title>
  <path
     class="cls-1"
     d="m 166.72761,253.4086 c -12.13895,15.02712 -24.20476,30.20085 -36.56308,45.15465 -3.43692,4.10497 -7.31261,7.77012 -11.77331,12.0217 L 98.647168,177.97977 c -0.877516,0 -5.11883,-35.91849 -5.923219,-35.84519 8.043871,67.14558 11.407681,170.28294 3.510053,237.28192 l -1.974403,0.87965 C 82.925047,359.47807 70.71298,339.02652 60.47532,317.69535 50.23766,296.36417 42.193783,274.37325 33.126143,252.74887 c -0.58501,0 -7.312613,-18.03255 -7.312613,-17.88595 7.824495,26.09588 20.255941,70.95733 29.250455,96.6134 10.018281,27.19543 22.888483,53.4379 33.711153,80.63333 a 34.515539,34.599032 0 0 1 0.36563,17.95925 c -3.875687,21.6244 -8.336381,43.2488 -12.870202,64.7999 A 8.2632542,8.283243 0 0 1 70.932358,500 C 47.458867,500 24.0585,500 0,500 V 0 h 200 v 499.7068 h -81.9744 c 0.43875,-9.2362 0.8775,-18.32577 1.24314,-27.41535 0.87752,-22.65062 2.34004,-45.37458 2.34004,-68.02522 0,-22.65063 -1.82816,-46.18091 -2.34004,-69.27136 a 21.937842,21.99091 0 0 1 3.87568,-11.36197 c 13.74772,-21.25788 27.86107,-42.29585 41.75503,-63.40713 1.17002,-1.83257 2.19378,-3.95837 3.87568,-6.15745 0,-0.43982 4.89946,-11.72849 4.97258,-12.16831 0.0731,-0.43981 -6.7276,11.21536 -7.0201,11.50859 z m 2.04752,-3.15205 v 0 -0.43981 z m 1.60878,-2.27238 v -0.36652 0 z"
     id="path1"
     style="stroke-width:7.32145" />
  <polygon
     class="cls-7"
     points="23.1,34.22 23.05,34.18 23.11,34.16 "
     id="polygon9"
     transform="matrix(7.3126143,0,0,7.3303035,0.21937842,-0.29321215)" />
  <path
     class="cls-7"
     d="m 166.72761,253.4086 0.80438,-0.80635 v 1.31945 z"
     id="path10"
     style="stroke-width:7.32145" />
  <polygon
     class="cls-7"
     points="23.31,33.82 23.27,33.87 23.26,33.81 "
     id="polygon10"
     transform="matrix(7.3126143,0,0,7.3303035,0.21937842,-0.29321215)" />
  <metadata
     id="metadata16">
    <rdf:RDF>
      <cc:Work
         rdf:about="">
        <dc:title>LOGO new</dc:title>
      </cc:Work>
    </rdf:RDF>
  </metadata>
</svg>
